<svg width="28" height="28" viewBox="0 0 28 28" fill="none" xmlns="http://www.w3.org/2000/svg">
<g clip-path="url(#clip0_2006_175)">
<path d="M11.6669 15.1666C12.1679 15.8365 12.8071 16.3907 13.5412 16.7917C14.2753 17.1928 15.087 17.4313 15.9213 17.491C16.7557 17.5508 17.5931 17.4304 18.3768 17.1381C19.1605 16.8457 19.8722 16.3882 20.4636 15.7966L23.9636 12.2966C25.0262 11.1965 25.6141 9.72295 25.6008 8.19347C25.5875 6.66399 24.9741 5.20092 23.8925 4.11937C22.811 3.03782 21.3479 2.42434 19.8184 2.41105C18.2889 2.39776 16.8154 2.98572 15.7152 4.04831L13.7086 6.04331M16.3336 12.8333C15.8325 12.1635 15.1933 11.6093 14.4593 11.2082C13.7252 10.8072 12.9135 10.5687 12.0791 10.5089C11.2448 10.4492 10.4074 10.5696 9.62366 10.8619C8.83994 11.1543 8.12827 11.6117 7.5369 12.2033L4.0369 15.7033C2.97431 16.8035 2.38634 18.277 2.39963 19.8065C2.41293 21.336 3.02641 22.799 4.10796 23.8806C5.18951 24.9621 6.65258 25.5756 8.18206 25.5889C9.71154 25.6022 11.1851 25.0142 12.2852 23.9516L14.2802 21.9566" stroke="#F3F3F3" stroke-width="4" stroke-linecap="round" stroke-linejoin="round"/>
</g>
<defs>
<clipPath id="clip0_2006_175">
<rect width="28" height="28" fill="white"/>
</clipPath>
</defs>
</svg>
