<svg width="291" height="176" viewBox="0 0 291 176" fill="none" xmlns="http://www.w3.org/2000/svg">
<rect x="1.5" y="17.5" width="288" height="157" rx="13.5" fill="#008CFF" fill-opacity="0.2" stroke="#008CFF" stroke-width="3"/>
<path d="M82.3665 68.4545V115H72.5256V77.7955H72.2528L61.5938 84.4773V75.75L73.1165 68.4545H82.3665Z" fill="white"/>
<path d="M216.991 116.023C213.082 116.008 209.719 115.045 206.901 113.136C204.098 111.227 201.938 108.462 200.423 104.841C198.923 101.22 198.181 96.8636 198.196 91.7727C198.196 86.697 198.946 82.3712 200.446 78.7955C201.961 75.2197 204.12 72.5 206.923 70.6364C209.741 68.7576 213.098 67.8182 216.991 67.8182C220.885 67.8182 224.234 68.7576 227.037 70.6364C229.855 72.5152 232.022 75.2424 233.537 78.8182C235.052 82.3788 235.802 86.697 235.787 91.7727C235.787 96.8788 235.029 101.242 233.514 104.864C232.014 108.485 229.863 111.25 227.06 113.159C224.257 115.068 220.901 116.023 216.991 116.023ZM216.991 107.864C219.658 107.864 221.787 106.523 223.378 103.841C224.969 101.159 225.757 97.1364 225.741 91.7727C225.741 88.2424 225.378 85.303 224.651 82.9545C223.938 80.6061 222.923 78.8409 221.605 77.6591C220.302 76.4773 218.764 75.8864 216.991 75.8864C214.34 75.8864 212.219 77.2121 210.628 79.8636C209.037 82.5152 208.234 86.4848 208.219 91.7727C208.219 95.3485 208.575 98.3333 209.287 100.727C210.014 103.106 211.037 104.894 212.355 106.091C213.673 107.273 215.219 107.864 216.991 107.864Z" fill="white"/>
<rect x="143" y="20" width="5" height="156" fill="#008CFF"/>
<rect x="34" width="13" height="18" fill="#008CFF"/>
<rect x="96" width="12" height="18" fill="#008CFF"/>
<rect x="183" width="12" height="18" fill="#008CFF"/>
<rect x="243" width="14" height="18" fill="#008CFF"/>
</svg>
